<svg width="162" height="56" viewBox="0 0 162 56" fill="none" xmlns="http://www.w3.org/2000/svg">
<path d="M55.2697 23.1957C56.2427 24.1857 56.2427 25.7897 55.2697 26.7787L45.0827 37.1407C44.93 37.2974 44.7473 37.422 44.5456 37.5071C44.3439 37.5922 44.1272 37.636 43.9082 37.636C43.6893 37.636 43.4726 37.5922 43.2709 37.5071C43.0692 37.422 42.8865 37.2974 42.7337 37.1407L30.8498 25.0517C30.3828 24.5767 30.1198 23.9317 30.1198 23.2597V1.69265C30.1198 0.187652 31.9088 -0.566348 32.9548 0.498652L55.2687 23.1967L55.2697 23.1957ZM10.3007 36.5037C10.5299 36.7388 10.8039 36.9256 11.1064 37.0532C11.4089 37.1807 11.7339 37.2465 12.0623 37.2465C12.3906 37.2465 12.7156 37.1807 13.0181 37.0532C13.3206 36.9256 13.5946 36.7388 13.8238 36.5037L25.1138 25.0187C25.5808 24.5437 25.8428 23.8987 25.8428 23.2267V1.71265C25.8428 0.207652 24.0537 -0.546348 23.0077 0.517652L0.72975 23.1827C-0.24325 24.1727 -0.24325 25.7767 0.72975 26.7667L10.3007 36.5037Z" fill="#3C52D9"/>
<path d="M25.7074 31.1435L16.6783 40.1726C15.4681 41.3828 15.4681 43.345 16.6783 44.5552L25.8141 53.691C27.0244 54.9013 28.9866 54.9013 30.1968 53.691L39.2258 44.662C40.4361 43.4518 40.4361 41.4896 39.2258 40.2793L30.09 31.1435C28.8798 29.9333 26.9176 29.9333 25.7074 31.1435Z" fill="#2EF2FF"/>
<path d="M144.406 37.5149L142.072 17.8169C142.072 17.8169 142.058 17.7189 142.029 17.5229C142.001 17.2989 142.043 17.0329 142.157 16.7249C142.27 16.4169 142.539 16.1369 142.963 15.8849C143.416 15.6049 144.123 15.4229 145.085 15.3389C146.048 15.2549 146.783 15.3249 147.293 15.5489C147.83 15.7729 148.212 16.0529 148.439 16.3889C148.665 16.7249 148.793 17.0329 148.821 17.3129C148.877 17.5929 148.906 17.7329 148.906 17.7329L149.585 24.1589L153.533 16.9769C153.533 16.9769 153.646 16.8369 153.872 16.5569C154.099 16.2489 154.495 15.9829 155.061 15.7589C155.627 15.5349 156.391 15.5209 157.353 15.7169C158.343 15.9129 159.008 16.1789 159.348 16.5149C159.687 16.8509 159.829 17.2149 159.772 17.6069C159.744 17.9989 159.617 18.3769 159.39 18.7409C159.249 18.9649 158.98 19.3849 158.584 20.0009C158.188 20.6169 157.721 21.3169 157.183 22.1009C156.674 22.8849 156.178 23.6409 155.697 24.3689C155.216 25.0969 154.806 25.7129 154.466 26.2169C154.155 26.6929 153.999 26.9309 153.999 26.9309L161.3 35.8349C161.3 35.8349 161.385 35.9749 161.555 36.2549C161.725 36.5069 161.824 36.8149 161.852 37.1789C161.881 37.5149 161.682 37.8229 161.258 38.1029C160.862 38.3829 160.084 38.5509 158.923 38.6069C157.791 38.6349 156.886 38.4809 156.207 38.1449C155.528 37.7809 155.032 37.4169 154.721 37.0529C154.438 36.6609 154.297 36.4649 154.297 36.4649L150.731 31.1729L151.368 37.5989C151.368 37.5989 151.368 37.7109 151.368 37.9349C151.368 38.1589 151.283 38.4109 151.113 38.6909C150.972 38.9709 150.66 39.2229 150.179 39.4469C149.698 39.6709 148.991 39.7829 148.057 39.7829C147.123 39.7829 146.401 39.6709 145.892 39.4469C145.383 39.2229 145.015 38.9569 144.788 38.6489C144.59 38.3409 144.477 38.0749 144.449 37.8509C144.42 37.6269 144.406 37.5149 144.406 37.5149Z" fill="#EAEDFF"/>
<path d="M131.654 37.641C131.57 36.689 131.513 35.499 131.485 34.071C131.456 32.615 131.442 31.061 131.442 29.409C131.442 27.757 131.456 26.161 131.485 24.621C131.541 23.053 131.598 21.667 131.654 20.463C131.711 19.259 131.768 18.391 131.824 17.859C131.909 17.187 132.15 16.683 132.546 16.347C132.942 15.983 133.381 15.731 133.862 15.591C134.371 15.451 134.796 15.381 135.135 15.381C135.503 15.353 135.687 15.339 135.687 15.339C135.687 15.339 135.857 15.367 136.196 15.423C136.564 15.451 136.96 15.521 137.385 15.633C137.809 15.745 138.107 15.941 138.276 16.221C138.644 16.781 138.814 17.327 138.786 17.859C138.786 18.363 138.757 19.021 138.701 19.833C138.531 21.933 138.432 23.991 138.404 26.007C138.375 28.023 138.375 29.857 138.404 31.509C138.432 33.161 138.46 34.477 138.489 35.457C138.545 36.437 138.573 36.927 138.573 36.927C138.573 36.927 138.559 37.081 138.531 37.389C138.531 37.669 138.446 37.991 138.276 38.355C138.107 38.719 137.781 39.055 137.3 39.363C136.819 39.643 136.111 39.783 135.178 39.783C134.244 39.783 133.522 39.685 133.013 39.489C132.532 39.265 132.192 39.013 131.994 38.733C131.824 38.425 131.725 38.173 131.697 37.977C131.669 37.753 131.654 37.641 131.654 37.641Z" fill="#EAEDFF"/>
<path d="M111.321 37.5149L109.369 19.2029C109.369 19.2029 109.326 19.1189 109.241 18.9509C109.185 18.7829 109.17 18.5589 109.199 18.2789C109.227 17.9989 109.383 17.7049 109.666 17.3969C109.977 17.0889 110.5 16.8089 111.236 16.5569C112.227 16.1929 113.387 15.8989 114.717 15.6749C116.075 15.4229 117.504 15.3529 119.004 15.4649C120.532 15.5769 122.032 16.0249 123.504 16.8089C124.381 17.2569 125.032 17.9009 125.456 18.7409C125.881 19.5809 126.135 20.4769 126.22 21.4289C126.305 22.3809 126.305 23.2909 126.22 24.1589C126.164 25.0269 126.065 25.7409 125.923 26.3009C125.81 26.8609 125.753 27.1409 125.753 27.1409C125.753 27.1409 125.654 27.3509 125.456 27.7709C125.258 28.1909 124.876 28.6669 124.31 29.1989C123.772 29.7029 122.98 30.1089 121.933 30.4169L127.961 36.8429C127.961 36.8429 128.06 36.9549 128.258 37.1789C128.456 37.4029 128.611 37.6829 128.725 38.0189C128.866 38.3269 128.838 38.6489 128.64 38.9849C128.47 39.2929 128.003 39.5589 127.239 39.7829C126.447 40.0069 125.739 40.0629 125.117 39.9509C124.522 39.8389 124.027 39.6569 123.631 39.4049C123.263 39.1529 122.98 38.9149 122.782 38.6909C122.584 38.4669 122.485 38.3549 122.485 38.3549L116.882 31.5089L118.282 37.4309C118.282 37.4309 118.311 37.5569 118.367 37.8089C118.424 38.0329 118.396 38.2989 118.282 38.6069C118.169 38.9149 117.886 39.1949 117.434 39.4469C116.981 39.6709 116.259 39.7829 115.269 39.7829C114.278 39.7829 113.5 39.6709 112.934 39.4469C112.396 39.2229 112.014 38.9569 111.788 38.6489C111.562 38.3409 111.42 38.0749 111.364 37.8509C111.335 37.6269 111.321 37.5149 111.321 37.5149ZM115.354 19.1609L116.372 27.6029C116.372 27.6029 116.528 27.6169 116.839 27.6449C117.179 27.6729 117.575 27.6449 118.028 27.5609C118.509 27.4769 118.962 27.2809 119.386 26.9729C119.839 26.6369 120.207 26.1329 120.49 25.4609C120.773 24.7609 120.872 23.8089 120.787 22.6049C120.702 21.4569 120.476 20.6169 120.108 20.0849C119.74 19.5249 119.287 19.1749 118.749 19.0349C118.212 18.8669 117.646 18.8249 117.052 18.9089C116.457 18.9649 115.891 19.0489 115.354 19.1609Z" fill="#EAEDFF"/>
<path d="M89.1377 27.561C89.1377 25.321 89.5339 23.277 90.3262 21.429C91.1186 19.553 92.1939 18.069 93.5522 16.977C94.9106 15.857 96.4104 15.297 98.0517 15.297C99.2685 15.297 100.429 15.619 101.532 16.263C102.636 16.879 103.612 17.761 104.461 18.909C105.31 20.029 105.975 21.331 106.456 22.815C106.937 24.299 107.178 25.881 107.178 27.561C107.178 29.241 106.937 30.823 106.456 32.307C105.975 33.791 105.31 35.107 104.461 36.255C103.612 37.375 102.636 38.257 101.532 38.901C100.429 39.517 99.2685 39.825 98.0517 39.825C96.4104 39.825 94.9106 39.279 93.5522 38.187C92.1939 37.067 91.1186 35.583 90.3262 33.735C89.5339 31.887 89.1377 29.829 89.1377 27.561ZM95.6322 27.393C95.6322 29.017 95.7454 30.515 95.9717 31.887C96.1981 33.231 96.5094 34.309 96.9056 35.121C97.3018 35.905 97.7404 36.297 98.2215 36.297C98.7025 36.297 99.1412 35.905 99.5373 35.121C99.9335 34.309 100.245 33.231 100.471 31.887C100.698 30.515 100.811 29.017 100.811 27.393C100.811 25.741 100.698 24.243 100.471 22.899C100.245 21.555 99.9335 20.477 99.5373 19.665C99.1412 18.853 98.7025 18.447 98.2215 18.447C97.7404 18.447 97.3018 18.853 96.9056 19.665C96.5094 20.477 96.1981 21.555 95.9717 22.899C95.7454 24.243 95.6322 25.741 95.6322 27.393Z" fill="#EAEDFF"/>
<path d="M76.2111 22.899L78.7155 17.145C78.7155 17.145 78.8004 16.963 78.9702 16.599C79.1683 16.235 79.5503 15.871 80.1163 15.507C80.7105 15.143 81.6019 14.975 82.7905 15.003C83.979 15.003 84.7572 15.213 85.1251 15.633C85.5213 16.025 85.6628 16.501 85.5496 17.061C85.4647 17.593 85.2807 18.097 84.9977 18.573C84.828 18.853 84.5167 19.329 84.0639 20.001C83.6394 20.673 83.1584 21.429 82.6207 22.269C82.083 23.109 81.5595 23.921 81.0501 24.705C80.5408 25.461 80.1163 26.091 79.7767 26.595C79.4654 27.099 79.3098 27.351 79.3098 27.351L86.7381 37.305C86.7381 37.305 86.8088 37.417 86.9503 37.641C87.0918 37.837 87.1626 38.103 87.1626 38.439C87.1909 38.775 87.0352 39.111 86.6956 39.447C86.3844 39.783 85.7618 40.077 84.828 40.329C83.8941 40.581 83.0876 40.595 82.4084 40.371C81.7576 40.147 81.2199 39.839 80.7954 39.447C80.371 39.027 80.0597 38.649 79.8616 38.313C79.6635 37.977 79.5645 37.809 79.5645 37.809L77.0176 32.349L74.8528 38.313C74.8528 38.313 74.782 38.439 74.6406 38.691C74.4991 38.915 74.1595 39.153 73.6218 39.405C73.1124 39.657 72.2918 39.783 71.1599 39.783C70.0279 39.783 69.2356 39.587 68.7828 39.195C68.3583 38.775 68.1461 38.313 68.1461 37.809C68.1461 37.277 68.2451 36.829 68.4432 36.465C68.5564 36.241 68.8111 35.807 69.2073 35.163C69.6034 34.491 70.0562 33.735 70.5656 32.895C71.075 32.055 71.5702 31.243 72.0513 30.459C72.5323 29.647 72.9285 28.989 73.2398 28.485C73.5794 27.953 73.7492 27.687 73.7492 27.687L67.4669 18.951C67.4669 18.951 67.382 18.825 67.2122 18.573C67.0707 18.321 67 18.013 67 17.649C67 17.285 67.1981 16.949 67.5943 16.641C67.9904 16.333 68.7403 16.123 69.844 16.011C70.7778 15.927 71.5419 15.997 72.1361 16.221C72.7304 16.417 73.1832 16.683 73.4945 17.019C73.834 17.327 74.0604 17.607 74.1736 17.859C74.3151 18.111 74.3859 18.237 74.3859 18.237L76.2111 22.899Z" fill="#EAEDFF"/>
</svg>
